<svg width="939" height="940" viewBox="0 0 939 940" fill="none" xmlns="http://www.w3.org/2000/svg">
<path fill-rule="evenodd" clip-rule="evenodd" d="M463.648 721.089C504.056 721.089 536.812 688.298 536.812 647.847C536.812 607.397 504.056 574.605 463.648 574.605C423.241 574.605 390.484 607.397 390.484 647.847C390.484 688.298 423.241 721.089 463.648 721.089Z" fill="#13CFA6"/>
<path fill-rule="evenodd" clip-rule="evenodd" d="M463.648 523.806C504.056 523.806 536.812 491.015 536.812 450.564C536.812 410.113 504.056 377.322 463.648 377.322C423.241 377.322 390.484 410.113 390.484 450.564C390.484 491.015 423.241 523.806 463.648 523.806Z" fill="white"/>
<path fill-rule="evenodd" clip-rule="evenodd" d="M463.5 545.052C503.907 545.052 536.663 512.261 536.663 471.81C536.663 431.359 503.907 398.568 463.5 398.568C423.092 398.568 390.336 431.359 390.336 471.81C390.336 512.261 423.092 545.052 463.5 545.052Z" fill="white"/>
<path fill-rule="evenodd" clip-rule="evenodd" d="M463.648 333.483C504.056 333.483 536.812 300.691 536.812 260.242C536.812 219.791 504.056 187 463.648 187C423.241 187 390.484 219.791 390.484 260.242C390.484 300.691 423.241 333.483 463.648 333.483Z" fill="#13CFA6"/>
<path fill-rule="evenodd" clip-rule="evenodd" d="M278.164 721.089C318.571 721.089 351.328 688.297 351.328 647.847C351.328 607.397 318.571 574.605 278.164 574.605C237.756 574.605 205 607.397 205 647.847C205 688.297 237.756 721.089 278.164 721.089Z" fill="#13CFA6"/>
<path fill-rule="evenodd" clip-rule="evenodd" d="M660.718 333.483C701.126 333.483 733.882 300.691 733.882 260.242C733.882 219.791 701.126 187 660.718 187C620.312 187 587.555 219.791 587.555 260.242C587.555 300.691 620.312 333.483 660.718 333.483Z" fill="#13CFA6"/>
<mask id="mask0_1116_5902" style="mask-type:alpha" maskUnits="userSpaceOnUse" x="58" y="138" width="492" height="492">
<rect x="58" y="138" width="492" height="492" fill="#D9D9D9"/>
</mask>
<g mask="url(#mask0_1116_5902)">
<path d="M217 575C194.45 575 175.146 566.971 159.088 550.913C143.029 534.854 135 515.55 135 493C135 470.45 143.029 451.146 159.088 435.088C175.146 419.029 194.45 411 217 411C224.858 411 232.119 411.94 238.781 413.819C245.444 415.698 251.85 418.517 258 422.275V206H381V288H299V493C299 515.55 290.971 534.854 274.913 550.913C258.854 566.971 239.55 575 217 575Z" fill="#13CFA6"/>
</g>
</svg>
